<mxfile host="app.diagrams.net" modified="2023-06-28T08:14:49.672Z" agent="Mozilla/5.0 (Windows NT 10.0; Win64; x64) AppleWebKit/537.36 (KHTML, like Gecko) Chrome/114.0.0.0 Safari/537.36" etag="K3UzWu2_T1XWqx8ToVfO" version="21.5.1" type="github">
  <diagram name="Trang-1" id="93C8ARH71gQQAzw3Q0bI">
    <mxGraphModel dx="1434" dy="774" grid="0" gridSize="10" guides="1" tooltips="1" connect="1" arrows="1" fold="1" page="1" pageScale="1" pageWidth="3000" pageHeight="5000" math="0" shadow="0">
      <root>
        <mxCell id="0" />
        <mxCell id="1" parent="0" />
        <mxCell id="fIrqFg0aEj946vDmYM8f-79" value="&lt;b&gt;Output&lt;/b&gt;" style="fillColor=none;strokeColor=#121212;dashed=1;verticalAlign=top;fontStyle=0;fontColor=#121212;whiteSpace=wrap;html=1;" vertex="1" parent="1">
          <mxGeometry x="1067.5" y="270.87" width="56" height="115.5" as="geometry" />
        </mxCell>
        <mxCell id="fIrqFg0aEj946vDmYM8f-78" value="&lt;b&gt;FC Layer&lt;/b&gt;" style="fillColor=none;strokeColor=#121212;dashed=1;verticalAlign=top;fontStyle=0;fontColor=#121212;whiteSpace=wrap;html=1;" vertex="1" parent="1">
          <mxGeometry x="930" y="212.37" width="110.5" height="219.25" as="geometry" />
        </mxCell>
        <mxCell id="fIrqFg0aEj946vDmYM8f-36" value="&lt;b&gt;LSTM layer&lt;/b&gt;" style="fillColor=none;strokeColor=#121212;dashed=1;verticalAlign=top;fontStyle=0;fontColor=#121212;whiteSpace=wrap;html=1;" vertex="1" parent="1">
          <mxGeometry x="718" y="219.5" width="91.5" height="205" as="geometry" />
        </mxCell>
        <mxCell id="fIrqFg0aEj946vDmYM8f-30" value="&lt;b&gt;Max Pooling Layer&lt;/b&gt;" style="fillColor=none;strokeColor=#121212;dashed=1;verticalAlign=top;fontStyle=0;fontColor=#121212;whiteSpace=wrap;html=1;" vertex="1" parent="1">
          <mxGeometry x="482" y="216.5" width="111" height="211" as="geometry" />
        </mxCell>
        <mxCell id="fIrqFg0aEj946vDmYM8f-22" value="&lt;b&gt;CNN Layer&lt;/b&gt;" style="fillColor=none;strokeColor=#121212;dashed=1;verticalAlign=top;fontStyle=0;fontColor=#121212;whiteSpace=wrap;html=1;" vertex="1" parent="1">
          <mxGeometry x="318" y="216.5" width="134" height="211" as="geometry" />
        </mxCell>
        <mxCell id="fIrqFg0aEj946vDmYM8f-9" value="&lt;b&gt;Input layer&lt;/b&gt;" style="fillColor=none;strokeColor=#121212;dashed=1;verticalAlign=top;fontStyle=0;fontColor=#121212;whiteSpace=wrap;html=1;" vertex="1" parent="1">
          <mxGeometry x="122" y="220.5" width="91.5" height="205" as="geometry" />
        </mxCell>
        <mxCell id="fIrqFg0aEj946vDmYM8f-2" value="X1" style="rounded=0;whiteSpace=wrap;html=1;fillColor=#f5f5f5;strokeColor=#666666;gradientColor=#b3b3b3;" vertex="1" parent="1">
          <mxGeometry x="137.75" y="250" width="60" height="30" as="geometry" />
        </mxCell>
        <mxCell id="fIrqFg0aEj946vDmYM8f-5" value="" style="edgeStyle=orthogonalEdgeStyle;rounded=0;orthogonalLoop=1;jettySize=auto;html=1;dashed=1;" edge="1" parent="1" source="fIrqFg0aEj946vDmYM8f-3" target="fIrqFg0aEj946vDmYM8f-4">
          <mxGeometry relative="1" as="geometry" />
        </mxCell>
        <mxCell id="fIrqFg0aEj946vDmYM8f-3" value="X2" style="rounded=0;whiteSpace=wrap;html=1;fillColor=#f5f5f5;strokeColor=#666666;gradientColor=#b3b3b3;" vertex="1" parent="1">
          <mxGeometry x="137.75" y="300" width="60" height="30" as="geometry" />
        </mxCell>
        <mxCell id="fIrqFg0aEj946vDmYM8f-4" value="Xn" style="rounded=0;whiteSpace=wrap;html=1;fillColor=#f5f5f5;strokeColor=#666666;gradientColor=#b3b3b3;" vertex="1" parent="1">
          <mxGeometry x="137.75" y="380" width="60" height="30" as="geometry" />
        </mxCell>
        <mxCell id="fIrqFg0aEj946vDmYM8f-12" value="" style="rounded=0;whiteSpace=wrap;html=1;fillColor=#f8cecc;strokeColor=#b85450;gradientColor=#ea6b66;" vertex="1" parent="1">
          <mxGeometry x="337" y="249" width="59" height="130" as="geometry" />
        </mxCell>
        <mxCell id="fIrqFg0aEj946vDmYM8f-13" value="" style="rounded=0;whiteSpace=wrap;html=1;fillColor=#f8cecc;strokeColor=#b85450;gradientColor=#ea6b66;" vertex="1" parent="1">
          <mxGeometry x="347" y="259" width="59" height="130" as="geometry" />
        </mxCell>
        <mxCell id="fIrqFg0aEj946vDmYM8f-14" value="" style="rounded=0;whiteSpace=wrap;html=1;fillColor=#f8cecc;strokeColor=#b85450;gradientColor=#ea6b66;" vertex="1" parent="1">
          <mxGeometry x="357" y="269" width="59" height="130" as="geometry" />
        </mxCell>
        <mxCell id="fIrqFg0aEj946vDmYM8f-15" value="" style="rounded=0;whiteSpace=wrap;html=1;fillColor=#f8cecc;strokeColor=#b85450;gradientColor=#ea6b66;" vertex="1" parent="1">
          <mxGeometry x="367" y="279" width="59" height="130" as="geometry" />
        </mxCell>
        <mxCell id="fIrqFg0aEj946vDmYM8f-16" value="" style="rounded=0;whiteSpace=wrap;html=1;fillColor=#f8cecc;strokeColor=#b85450;gradientColor=#ea6b66;" vertex="1" parent="1">
          <mxGeometry x="377" y="287" width="59" height="130" as="geometry" />
        </mxCell>
        <mxCell id="fIrqFg0aEj946vDmYM8f-17" value="" style="rounded=0;whiteSpace=wrap;html=1;fillColor=#fff2cc;strokeColor=#d6b656;gradientColor=#ffd966;" vertex="1" parent="1">
          <mxGeometry x="495" y="257" width="59" height="130" as="geometry" />
        </mxCell>
        <mxCell id="fIrqFg0aEj946vDmYM8f-18" value="" style="rounded=0;whiteSpace=wrap;html=1;fillColor=#fff2cc;strokeColor=#d6b656;gradientColor=#ffd966;" vertex="1" parent="1">
          <mxGeometry x="505" y="267" width="59" height="130" as="geometry" />
        </mxCell>
        <mxCell id="fIrqFg0aEj946vDmYM8f-19" value="" style="rounded=0;whiteSpace=wrap;html=1;fillColor=#fff2cc;strokeColor=#d6b656;gradientColor=#ffd966;" vertex="1" parent="1">
          <mxGeometry x="515" y="277" width="59" height="130" as="geometry" />
        </mxCell>
        <mxCell id="fIrqFg0aEj946vDmYM8f-31" value="" style="edgeStyle=orthogonalEdgeStyle;rounded=0;orthogonalLoop=1;jettySize=auto;html=1;" edge="1" parent="1" source="fIrqFg0aEj946vDmYM8f-22" target="fIrqFg0aEj946vDmYM8f-30">
          <mxGeometry relative="1" as="geometry" />
        </mxCell>
        <mxCell id="fIrqFg0aEj946vDmYM8f-29" value="" style="edgeStyle=orthogonalEdgeStyle;rounded=0;orthogonalLoop=1;jettySize=auto;html=1;" edge="1" parent="1" source="fIrqFg0aEj946vDmYM8f-9" target="fIrqFg0aEj946vDmYM8f-27">
          <mxGeometry relative="1" as="geometry">
            <mxPoint x="219" y="323" as="sourcePoint" />
            <mxPoint x="374" y="323" as="targetPoint" />
          </mxGeometry>
        </mxCell>
        <mxCell id="fIrqFg0aEj946vDmYM8f-92" value="" style="edgeStyle=orthogonalEdgeStyle;rounded=0;orthogonalLoop=1;jettySize=auto;html=1;" edge="1" parent="1" source="fIrqFg0aEj946vDmYM8f-27" target="fIrqFg0aEj946vDmYM8f-22">
          <mxGeometry relative="1" as="geometry" />
        </mxCell>
        <mxCell id="fIrqFg0aEj946vDmYM8f-27" value="&lt;b&gt;Reshape Layer&lt;/b&gt;" style="rounded=0;whiteSpace=wrap;html=1;fillColor=#1ba1e2;strokeColor=#006EAF;fontColor=#ffffff;" vertex="1" parent="1">
          <mxGeometry x="236" y="304.75" width="54" height="36.5" as="geometry" />
        </mxCell>
        <mxCell id="fIrqFg0aEj946vDmYM8f-87" value="" style="edgeStyle=orthogonalEdgeStyle;rounded=0;orthogonalLoop=1;jettySize=auto;html=1;" edge="1" parent="1" source="fIrqFg0aEj946vDmYM8f-30" target="fIrqFg0aEj946vDmYM8f-84">
          <mxGeometry relative="1" as="geometry" />
        </mxCell>
        <mxCell id="fIrqFg0aEj946vDmYM8f-32" value="LSTM" style="rounded=0;whiteSpace=wrap;html=1;fillColor=#e6d0de;strokeColor=#996185;gradientColor=#d5739d;" vertex="1" parent="1">
          <mxGeometry x="733.75" y="244" width="60" height="30" as="geometry" />
        </mxCell>
        <mxCell id="fIrqFg0aEj946vDmYM8f-33" value="" style="edgeStyle=orthogonalEdgeStyle;rounded=0;orthogonalLoop=1;jettySize=auto;html=1;dashed=1;" edge="1" parent="1" source="fIrqFg0aEj946vDmYM8f-34" target="fIrqFg0aEj946vDmYM8f-35">
          <mxGeometry relative="1" as="geometry" />
        </mxCell>
        <mxCell id="fIrqFg0aEj946vDmYM8f-34" value="LSTM" style="rounded=0;whiteSpace=wrap;html=1;fillColor=#e6d0de;strokeColor=#996185;gradientColor=#d5739d;" vertex="1" parent="1">
          <mxGeometry x="733.75" y="294" width="60" height="30" as="geometry" />
        </mxCell>
        <mxCell id="fIrqFg0aEj946vDmYM8f-35" value="LSTM" style="rounded=0;whiteSpace=wrap;html=1;fillColor=#e6d0de;strokeColor=#996185;gradientColor=#d5739d;" vertex="1" parent="1">
          <mxGeometry x="733.75" y="374" width="60" height="30" as="geometry" />
        </mxCell>
        <mxCell id="fIrqFg0aEj946vDmYM8f-90" value="" style="edgeStyle=orthogonalEdgeStyle;rounded=0;orthogonalLoop=1;jettySize=auto;html=1;" edge="1" parent="1" source="fIrqFg0aEj946vDmYM8f-36" target="fIrqFg0aEj946vDmYM8f-86">
          <mxGeometry relative="1" as="geometry" />
        </mxCell>
        <mxCell id="fIrqFg0aEj946vDmYM8f-37" value="" style="ellipse;whiteSpace=wrap;html=1;aspect=fixed;fillColor=#f8cecc;strokeColor=#b85450;" vertex="1" parent="1">
          <mxGeometry x="939" y="238.37" width="29" height="29" as="geometry" />
        </mxCell>
        <mxCell id="fIrqFg0aEj946vDmYM8f-38" value="" style="ellipse;whiteSpace=wrap;html=1;aspect=fixed;fillColor=#f8cecc;strokeColor=#b85450;" vertex="1" parent="1">
          <mxGeometry x="939" y="318.37" width="29" height="29" as="geometry" />
        </mxCell>
        <mxCell id="fIrqFg0aEj946vDmYM8f-39" value="" style="ellipse;whiteSpace=wrap;html=1;aspect=fixed;fillColor=#f8cecc;strokeColor=#b85450;" vertex="1" parent="1">
          <mxGeometry x="939" y="278.37" width="29" height="29" as="geometry" />
        </mxCell>
        <mxCell id="fIrqFg0aEj946vDmYM8f-40" value="" style="ellipse;whiteSpace=wrap;html=1;aspect=fixed;fillColor=#f8cecc;strokeColor=#b85450;" vertex="1" parent="1">
          <mxGeometry x="939" y="394.37" width="29" height="29" as="geometry" />
        </mxCell>
        <mxCell id="fIrqFg0aEj946vDmYM8f-42" value="" style="endArrow=none;dashed=1;html=1;dashPattern=1 3;strokeWidth=2;rounded=0;" edge="1" parent="1">
          <mxGeometry width="50" height="50" relative="1" as="geometry">
            <mxPoint x="954" y="389.37" as="sourcePoint" />
            <mxPoint x="954" y="356.37" as="targetPoint" />
          </mxGeometry>
        </mxCell>
        <mxCell id="fIrqFg0aEj946vDmYM8f-43" value="" style="ellipse;whiteSpace=wrap;html=1;aspect=fixed;fillColor=#f8cecc;strokeColor=#b85450;" vertex="1" parent="1">
          <mxGeometry x="1003" y="262.37" width="29" height="29" as="geometry" />
        </mxCell>
        <mxCell id="fIrqFg0aEj946vDmYM8f-44" value="" style="ellipse;whiteSpace=wrap;html=1;aspect=fixed;fillColor=#f8cecc;strokeColor=#b85450;" vertex="1" parent="1">
          <mxGeometry x="1003" y="365.37" width="29" height="29" as="geometry" />
        </mxCell>
        <mxCell id="fIrqFg0aEj946vDmYM8f-45" value="" style="ellipse;whiteSpace=wrap;html=1;aspect=fixed;fillColor=#f8cecc;strokeColor=#b85450;" vertex="1" parent="1">
          <mxGeometry x="1003" y="302.37" width="29" height="29" as="geometry" />
        </mxCell>
        <mxCell id="fIrqFg0aEj946vDmYM8f-46" value="" style="ellipse;whiteSpace=wrap;html=1;aspect=fixed;fillColor=#dae8fc;strokeColor=#6c8ebf;" vertex="1" parent="1">
          <mxGeometry x="1081" y="298.37" width="29" height="29" as="geometry" />
        </mxCell>
        <mxCell id="fIrqFg0aEj946vDmYM8f-47" value="" style="ellipse;whiteSpace=wrap;html=1;aspect=fixed;fillColor=#dae8fc;strokeColor=#6c8ebf;" vertex="1" parent="1">
          <mxGeometry x="1081" y="338.37" width="29" height="29" as="geometry" />
        </mxCell>
        <mxCell id="fIrqFg0aEj946vDmYM8f-59" value="" style="endArrow=none;html=1;rounded=0;exitX=1;exitY=0.5;exitDx=0;exitDy=0;entryX=0;entryY=0.5;entryDx=0;entryDy=0;" edge="1" parent="1" source="fIrqFg0aEj946vDmYM8f-43" target="fIrqFg0aEj946vDmYM8f-46">
          <mxGeometry width="50" height="50" relative="1" as="geometry">
            <mxPoint x="682" y="454.37" as="sourcePoint" />
            <mxPoint x="732" y="404.37" as="targetPoint" />
          </mxGeometry>
        </mxCell>
        <mxCell id="fIrqFg0aEj946vDmYM8f-61" value="" style="endArrow=none;html=1;rounded=0;exitX=1;exitY=0.5;exitDx=0;exitDy=0;entryX=0;entryY=0.5;entryDx=0;entryDy=0;" edge="1" parent="1" source="fIrqFg0aEj946vDmYM8f-37" target="fIrqFg0aEj946vDmYM8f-43">
          <mxGeometry width="50" height="50" relative="1" as="geometry">
            <mxPoint x="682" y="454.37" as="sourcePoint" />
            <mxPoint x="732" y="404.37" as="targetPoint" />
          </mxGeometry>
        </mxCell>
        <mxCell id="fIrqFg0aEj946vDmYM8f-62" value="" style="endArrow=none;html=1;rounded=0;exitX=1;exitY=0.5;exitDx=0;exitDy=0;entryX=0;entryY=0.5;entryDx=0;entryDy=0;" edge="1" parent="1" source="fIrqFg0aEj946vDmYM8f-37" target="fIrqFg0aEj946vDmYM8f-45">
          <mxGeometry width="50" height="50" relative="1" as="geometry">
            <mxPoint x="682" y="454.37" as="sourcePoint" />
            <mxPoint x="732" y="404.37" as="targetPoint" />
          </mxGeometry>
        </mxCell>
        <mxCell id="fIrqFg0aEj946vDmYM8f-63" value="" style="endArrow=none;html=1;rounded=0;exitX=1;exitY=0.5;exitDx=0;exitDy=0;entryX=0;entryY=0.5;entryDx=0;entryDy=0;" edge="1" parent="1" source="fIrqFg0aEj946vDmYM8f-37" target="fIrqFg0aEj946vDmYM8f-44">
          <mxGeometry width="50" height="50" relative="1" as="geometry">
            <mxPoint x="682" y="454.37" as="sourcePoint" />
            <mxPoint x="732" y="404.37" as="targetPoint" />
          </mxGeometry>
        </mxCell>
        <mxCell id="fIrqFg0aEj946vDmYM8f-64" value="" style="endArrow=none;html=1;rounded=0;entryX=1;entryY=0.5;entryDx=0;entryDy=0;exitX=0;exitY=0.5;exitDx=0;exitDy=0;" edge="1" parent="1" source="fIrqFg0aEj946vDmYM8f-43" target="fIrqFg0aEj946vDmYM8f-39">
          <mxGeometry width="50" height="50" relative="1" as="geometry">
            <mxPoint x="682" y="454.37" as="sourcePoint" />
            <mxPoint x="732" y="404.37" as="targetPoint" />
          </mxGeometry>
        </mxCell>
        <mxCell id="fIrqFg0aEj946vDmYM8f-65" value="" style="endArrow=none;html=1;rounded=0;exitX=1;exitY=0.5;exitDx=0;exitDy=0;entryX=0;entryY=0.5;entryDx=0;entryDy=0;" edge="1" parent="1" source="fIrqFg0aEj946vDmYM8f-39" target="fIrqFg0aEj946vDmYM8f-45">
          <mxGeometry width="50" height="50" relative="1" as="geometry">
            <mxPoint x="682" y="454.37" as="sourcePoint" />
            <mxPoint x="732" y="404.37" as="targetPoint" />
          </mxGeometry>
        </mxCell>
        <mxCell id="fIrqFg0aEj946vDmYM8f-66" value="" style="endArrow=none;html=1;rounded=0;exitX=1;exitY=0.5;exitDx=0;exitDy=0;entryX=0;entryY=0.5;entryDx=0;entryDy=0;" edge="1" parent="1" source="fIrqFg0aEj946vDmYM8f-39" target="fIrqFg0aEj946vDmYM8f-44">
          <mxGeometry width="50" height="50" relative="1" as="geometry">
            <mxPoint x="682" y="454.37" as="sourcePoint" />
            <mxPoint x="732" y="404.37" as="targetPoint" />
          </mxGeometry>
        </mxCell>
        <mxCell id="fIrqFg0aEj946vDmYM8f-67" value="" style="endArrow=none;html=1;rounded=0;exitX=1;exitY=0.5;exitDx=0;exitDy=0;" edge="1" parent="1" source="fIrqFg0aEj946vDmYM8f-38">
          <mxGeometry width="50" height="50" relative="1" as="geometry">
            <mxPoint x="682" y="454.37" as="sourcePoint" />
            <mxPoint x="1002" y="377.37" as="targetPoint" />
          </mxGeometry>
        </mxCell>
        <mxCell id="fIrqFg0aEj946vDmYM8f-68" value="" style="endArrow=none;html=1;rounded=0;exitX=0;exitY=0.5;exitDx=0;exitDy=0;entryX=1;entryY=0.5;entryDx=0;entryDy=0;" edge="1" parent="1" source="fIrqFg0aEj946vDmYM8f-43" target="fIrqFg0aEj946vDmYM8f-38">
          <mxGeometry width="50" height="50" relative="1" as="geometry">
            <mxPoint x="682" y="454.37" as="sourcePoint" />
            <mxPoint x="732" y="404.37" as="targetPoint" />
          </mxGeometry>
        </mxCell>
        <mxCell id="fIrqFg0aEj946vDmYM8f-69" value="" style="endArrow=none;html=1;rounded=0;exitX=1;exitY=0.5;exitDx=0;exitDy=0;entryX=0;entryY=0.5;entryDx=0;entryDy=0;" edge="1" parent="1" source="fIrqFg0aEj946vDmYM8f-38" target="fIrqFg0aEj946vDmYM8f-45">
          <mxGeometry width="50" height="50" relative="1" as="geometry">
            <mxPoint x="682" y="454.37" as="sourcePoint" />
            <mxPoint x="732" y="404.37" as="targetPoint" />
          </mxGeometry>
        </mxCell>
        <mxCell id="fIrqFg0aEj946vDmYM8f-70" value="" style="endArrow=none;html=1;rounded=0;exitX=1;exitY=0.5;exitDx=0;exitDy=0;entryX=0;entryY=0.5;entryDx=0;entryDy=0;" edge="1" parent="1" source="fIrqFg0aEj946vDmYM8f-40" target="fIrqFg0aEj946vDmYM8f-44">
          <mxGeometry width="50" height="50" relative="1" as="geometry">
            <mxPoint x="682" y="454.37" as="sourcePoint" />
            <mxPoint x="732" y="404.37" as="targetPoint" />
          </mxGeometry>
        </mxCell>
        <mxCell id="fIrqFg0aEj946vDmYM8f-71" value="" style="endArrow=none;html=1;rounded=0;exitX=1;exitY=0.5;exitDx=0;exitDy=0;" edge="1" parent="1" source="fIrqFg0aEj946vDmYM8f-40">
          <mxGeometry width="50" height="50" relative="1" as="geometry">
            <mxPoint x="682" y="454.37" as="sourcePoint" />
            <mxPoint x="1002" y="319.37" as="targetPoint" />
          </mxGeometry>
        </mxCell>
        <mxCell id="fIrqFg0aEj946vDmYM8f-72" value="" style="endArrow=none;html=1;rounded=0;entryX=0;entryY=0.5;entryDx=0;entryDy=0;" edge="1" parent="1" target="fIrqFg0aEj946vDmYM8f-43">
          <mxGeometry width="50" height="50" relative="1" as="geometry">
            <mxPoint x="968" y="408.37" as="sourcePoint" />
            <mxPoint x="732" y="404.37" as="targetPoint" />
          </mxGeometry>
        </mxCell>
        <mxCell id="fIrqFg0aEj946vDmYM8f-73" value="" style="endArrow=none;html=1;rounded=0;entryX=1;entryY=0.5;entryDx=0;entryDy=0;exitX=0;exitY=0.5;exitDx=0;exitDy=0;" edge="1" parent="1" source="fIrqFg0aEj946vDmYM8f-47" target="fIrqFg0aEj946vDmYM8f-43">
          <mxGeometry width="50" height="50" relative="1" as="geometry">
            <mxPoint x="682" y="454.37" as="sourcePoint" />
            <mxPoint x="732" y="404.37" as="targetPoint" />
          </mxGeometry>
        </mxCell>
        <mxCell id="fIrqFg0aEj946vDmYM8f-74" value="" style="endArrow=none;html=1;rounded=0;entryX=1;entryY=0.5;entryDx=0;entryDy=0;exitX=0;exitY=0.5;exitDx=0;exitDy=0;" edge="1" parent="1" source="fIrqFg0aEj946vDmYM8f-46" target="fIrqFg0aEj946vDmYM8f-45">
          <mxGeometry width="50" height="50" relative="1" as="geometry">
            <mxPoint x="682" y="454.37" as="sourcePoint" />
            <mxPoint x="732" y="404.37" as="targetPoint" />
          </mxGeometry>
        </mxCell>
        <mxCell id="fIrqFg0aEj946vDmYM8f-75" value="" style="endArrow=none;html=1;rounded=0;entryX=1;entryY=0.5;entryDx=0;entryDy=0;exitX=0;exitY=0.5;exitDx=0;exitDy=0;" edge="1" parent="1" source="fIrqFg0aEj946vDmYM8f-47" target="fIrqFg0aEj946vDmYM8f-45">
          <mxGeometry width="50" height="50" relative="1" as="geometry">
            <mxPoint x="682" y="454.37" as="sourcePoint" />
            <mxPoint x="732" y="404.37" as="targetPoint" />
          </mxGeometry>
        </mxCell>
        <mxCell id="fIrqFg0aEj946vDmYM8f-76" value="" style="endArrow=none;html=1;rounded=0;entryX=1;entryY=0.5;entryDx=0;entryDy=0;exitX=0;exitY=0.5;exitDx=0;exitDy=0;" edge="1" parent="1" source="fIrqFg0aEj946vDmYM8f-47" target="fIrqFg0aEj946vDmYM8f-44">
          <mxGeometry width="50" height="50" relative="1" as="geometry">
            <mxPoint x="682" y="454.37" as="sourcePoint" />
            <mxPoint x="732" y="404.37" as="targetPoint" />
          </mxGeometry>
        </mxCell>
        <mxCell id="fIrqFg0aEj946vDmYM8f-77" value="" style="endArrow=none;html=1;rounded=0;exitX=1;exitY=0.5;exitDx=0;exitDy=0;entryX=0;entryY=0.5;entryDx=0;entryDy=0;" edge="1" parent="1" source="fIrqFg0aEj946vDmYM8f-44" target="fIrqFg0aEj946vDmYM8f-46">
          <mxGeometry width="50" height="50" relative="1" as="geometry">
            <mxPoint x="682" y="454.37" as="sourcePoint" />
            <mxPoint x="732" y="404.37" as="targetPoint" />
          </mxGeometry>
        </mxCell>
        <mxCell id="fIrqFg0aEj946vDmYM8f-80" value="" style="endArrow=none;dashed=1;html=1;dashPattern=1 3;strokeWidth=2;rounded=0;" edge="1" parent="1">
          <mxGeometry width="50" height="50" relative="1" as="geometry">
            <mxPoint x="1018" y="362.37" as="sourcePoint" />
            <mxPoint x="1018" y="336.37" as="targetPoint" />
          </mxGeometry>
        </mxCell>
        <mxCell id="fIrqFg0aEj946vDmYM8f-81" value="" style="endArrow=classic;html=1;rounded=0;exitX=1;exitY=0.5;exitDx=0;exitDy=0;" edge="1" parent="1" source="fIrqFg0aEj946vDmYM8f-46">
          <mxGeometry width="50" height="50" relative="1" as="geometry">
            <mxPoint x="1130.9999999999993" y="311.62" as="sourcePoint" />
            <mxPoint x="1169" y="313.37" as="targetPoint" />
          </mxGeometry>
        </mxCell>
        <mxCell id="fIrqFg0aEj946vDmYM8f-82" value="" style="endArrow=classic;html=1;rounded=0;exitX=1;exitY=0.5;exitDx=0;exitDy=0;" edge="1" parent="1">
          <mxGeometry width="50" height="50" relative="1" as="geometry">
            <mxPoint x="1110" y="352.67" as="sourcePoint" />
            <mxPoint x="1169" y="352.67" as="targetPoint" />
          </mxGeometry>
        </mxCell>
        <mxCell id="fIrqFg0aEj946vDmYM8f-89" value="" style="edgeStyle=orthogonalEdgeStyle;rounded=0;orthogonalLoop=1;jettySize=auto;html=1;" edge="1" parent="1" source="fIrqFg0aEj946vDmYM8f-84" target="fIrqFg0aEj946vDmYM8f-36">
          <mxGeometry relative="1" as="geometry" />
        </mxCell>
        <mxCell id="fIrqFg0aEj946vDmYM8f-84" value="&lt;b&gt;Dropout&lt;/b&gt;" style="shape=tape;whiteSpace=wrap;html=1;strokeWidth=2;size=0.19;fillColor=#cdeb8b;strokeColor=#36393d;" vertex="1" parent="1">
          <mxGeometry x="628" y="289.5" width="57" height="65" as="geometry" />
        </mxCell>
        <mxCell id="fIrqFg0aEj946vDmYM8f-91" value="" style="edgeStyle=orthogonalEdgeStyle;rounded=0;orthogonalLoop=1;jettySize=auto;html=1;" edge="1" parent="1" source="fIrqFg0aEj946vDmYM8f-86" target="fIrqFg0aEj946vDmYM8f-78">
          <mxGeometry relative="1" as="geometry" />
        </mxCell>
        <mxCell id="fIrqFg0aEj946vDmYM8f-86" value="&lt;b&gt;Dropout&lt;/b&gt;" style="shape=tape;whiteSpace=wrap;html=1;strokeWidth=2;size=0.19;fillColor=#cdeb8b;strokeColor=#36393d;" vertex="1" parent="1">
          <mxGeometry x="840" y="289.5" width="57" height="65" as="geometry" />
        </mxCell>
      </root>
    </mxGraphModel>
  </diagram>
</mxfile>
